<svg width="24" height="24" viewBox="0 0 24 24" fill="none" xmlns="http://www.w3.org/2000/svg">
<path d="M11.6998 21.5998H5.69979C4.37431 21.5998 3.2998 20.5253 3.2998 19.1998L3.2999 4.79989C3.29991 3.47441 4.37442 2.3999 5.6999 2.3999H16.5002C17.8256 2.3999 18.9002 3.47442 18.9002 4.7999V9.5999M7.50018 7.1999H14.7002M7.50018 10.7999H14.7002M14.7002 15.5539V18.4982C14.7002 19.9532 16.2516 21.2877 17.7065 21.2877C19.1615 21.2877 20.7002 19.9532 20.7002 18.4982V14.779C20.7002 14.0088 20.2574 13.2271 19.2723 13.2271C18.2186 13.2271 17.7065 14.0087 17.7065 14.779V18.3433M7.50018 14.3999H11.1002" stroke="#475263" stroke-width="1.5" stroke-linecap="round" stroke-linejoin="round"/>
</svg>
