<svg width="58" height="74" viewBox="0 0 58 74" fill="none" xmlns="http://www.w3.org/2000/svg">
<path d="M58 74L38.7194 68.0848L10.2901 65.6104C4.33967 64.5641 0 59.3933 0 53.3492V0H58V74Z" fill="#CFD4DB"/>
<path d="M10.5952 65.6218L57.9999 74L21.1439 51.5916C21.1439 51.5916 21.6351 65.6218 10.5952 65.6218Z" fill="#8A949E"/>
<path d="M8.88235 13.3243H49.0083C49.7343 13.3243 50.3228 12.7974 50.3228 12.1474C50.3228 11.4975 49.7343 10.9706 49.0083 10.9706H8.88235C8.15637 10.9706 7.56787 11.4975 7.56787 12.1474C7.56787 12.7974 8.15637 13.3243 8.88235 13.3243Z" fill="#8A949E"/>
<path d="M49.0083 18.3258H8.88235C8.15637 18.3258 7.56787 18.8527 7.56787 19.5026C7.56787 20.1526 8.15637 20.6795 8.88235 20.6795H49.0083C49.7343 20.6795 50.3228 20.1526 50.3228 19.5026C50.3228 18.8527 49.7345 18.3258 49.0083 18.3258Z" fill="#8A949E"/>
<path d="M38.6244 25.6943H8.55297C8.00891 25.6943 7.56787 26.2432 7.56787 26.9202C7.56787 27.5973 8.00891 28.1461 8.55297 28.1461H38.6244C39.1685 28.1461 39.6095 27.5973 39.6095 26.9202C39.6095 26.2432 39.1686 25.6943 38.6244 25.6943Z" fill="#8A949E"/>
<path d="M32.2416 33.1477H8.35051C7.91827 33.1477 7.56787 33.6746 7.56787 34.3245C7.56787 34.9745 7.91827 35.5014 8.35051 35.5014H32.2416C32.6739 35.5014 33.0243 34.9745 33.0243 34.3245C33.0243 33.6746 32.674 33.1477 32.2416 33.1477Z" fill="#8A949E"/>
</svg>
