<svg width="19" height="24" viewBox="0 0 19 24" fill="none" xmlns="http://www.w3.org/2000/svg">
<path d="M17.7555 5.06089C17.0556 3.68084 16.0199 2.4989 14.7438 1.62372C13.4677 0.748539 11.992 0.208211 10.4525 0.0524082C9.75606 -0.0174694 9.05438 -0.0174694 8.35794 0.0524082C6.81845 0.208313 5.34282 0.748626 4.06665 1.6237C2.79048 2.49878 1.75469 3.68055 1.05447 5.06043C0.173472 6.82107 -0.166819 8.80305 0.0764526 10.7567C0.319724 12.7104 1.13568 14.5484 2.42154 16.0392L8.69191 23.6628C8.77851 23.7682 8.88736 23.853 9.01066 23.9113C9.13396 23.9695 9.26863 23.9997 9.40499 23.9997C9.54136 23.9997 9.67603 23.9695 9.79932 23.9113C9.92262 23.853 10.0315 23.7682 10.1181 23.6628L16.3884 16.0392C17.6743 14.5485 18.4902 12.7106 18.7335 10.757C18.9768 8.80337 18.6365 6.82146 17.7555 5.06089ZM9.40499 12.9224C8.67472 12.9224 7.96085 12.7059 7.35365 12.3002C6.74646 11.8945 6.2732 11.3178 5.99374 10.6431C5.71428 9.96841 5.64116 9.226 5.78363 8.50976C5.9261 7.79351 6.27776 7.1356 6.79413 6.61922C7.31051 6.10283 7.96842 5.75117 8.68466 5.6087C9.40089 5.46623 10.1433 5.53935 10.818 5.81882C11.4927 6.09828 12.0693 6.57154 12.475 7.17874C12.8807 7.78595 13.0973 8.49982 13.0973 9.2301C13.0962 10.209 12.7068 11.1475 12.0146 11.8397C11.3224 12.5319 10.3839 12.9213 9.40499 12.9224Z" fill="#E60023"/>
</svg>
