<svg width="20" height="18" viewBox="0 0 20 18" fill="none" xmlns="http://www.w3.org/2000/svg">
<path d="M8.91967 0.622078C9.39982 -0.207358 10.6002 -0.20736 11.0803 0.622076L19.831 15.7386C20.3112 16.568 19.711 17.6048 18.7507 17.6048H1.24932C0.289028 17.6048 -0.311159 16.568 0.168989 15.7386L8.91967 0.622078Z" fill="#F04452"/>
<path d="M9.22137 14.7034V14.6619C9.22155 14.2499 9.57 13.9157 9.99982 13.9157C10.4296 13.9157 10.7781 14.2499 10.7783 14.6619V14.7034C10.7783 15.1155 10.4297 15.4496 9.99982 15.4496C9.5699 15.4496 9.22137 15.1155 9.22137 14.7034ZM9.22137 11.1859V6.49522C9.22137 6.08311 9.5699 5.74902 9.99982 5.74902C10.4297 5.74902 10.7783 6.08311 10.7783 6.49522V11.1859C10.7781 11.5979 10.4296 11.9321 9.99982 11.9321C9.57 11.9321 9.22155 11.5979 9.22137 11.1859Z" fill="white"/>
</svg>
